<svg width="55" height="52" viewBox="0 0 55 52" fill="none" xmlns="http://www.w3.org/2000/svg">
<path d="M30.348 19.5C30.348 20.0746 30.5763 20.6257 30.9826 21.032C31.3889 21.4384 31.94 21.6666 32.5146 21.6666C33.0893 21.6666 33.6404 21.4384 34.0467 21.032C34.453 20.6257 34.6813 20.0746 34.6813 19.5C34.6813 18.9253 34.453 18.3742 34.0467 17.9679C33.6404 17.5616 33.0893 17.3333 32.5146 17.3333C31.94 17.3333 31.3889 17.5616 30.9826 17.9679C30.5763 18.3742 30.348 18.9253 30.348 19.5ZM26.019 30.3333C25.4443 30.3333 24.8932 30.105 24.4869 29.6987C24.0806 29.2924 23.8523 28.7413 23.8523 28.1666C23.8523 27.592 24.0806 27.0409 24.4869 26.6346C24.8932 26.2283 25.4443 26 26.019 26C26.5936 26 27.1447 26.2283 27.551 26.6346C27.9574 27.0409 28.1856 27.592 28.1856 28.1666C28.1856 28.7413 27.9574 29.2924 27.551 29.6987C27.1447 30.105 26.5936 30.3333 26.019 30.3333ZM17.3566 19.5C17.3566 20.0746 17.5849 20.6257 17.9912 21.032C18.3976 21.4384 18.9487 21.6666 19.5233 21.6666C20.0979 21.6666 20.649 21.4384 21.0554 21.032C21.4617 20.6257 21.69 20.0746 21.69 19.5C21.69 18.9253 21.4617 18.3742 21.0554 17.9679C20.649 17.5616 20.0979 17.3333 19.5233 17.3333C18.9487 17.3333 18.3976 17.5616 17.9912 17.9679C17.5849 18.3742 17.3566 18.9253 17.3566 19.5ZM44.063 10.8333C47.3043 10.8333 50.1383 13.4983 49.7981 16.9433C48.6869 28.1607 43.4086 38.5533 35.0063 46.0676C32.4215 48.386 28.5843 47.6645 26.6755 45.0298C23.9089 41.2131 21.1406 37.3976 18.3706 33.5833C17.4238 33.579 16.8085 33.579 16.0068 33.5811H14.644C14.0897 33.5815 13.5422 33.4602 13.0398 33.2261C12.5375 32.9919 12.0926 32.6504 11.7365 32.2257C11.3804 31.801 11.1217 31.3034 10.9787 30.768C10.8356 30.2325 10.8117 29.6722 10.9086 29.1265C9.11898 28.6845 7.60014 27.1071 7.60014 24.9145C7.60014 23.3978 8.32598 22.1801 9.36598 21.4283L7.29464 18.5575C4.96547 15.3335 7.26864 10.8225 11.2488 10.8246L44.063 10.8333ZM46.5633 16.6226C46.6933 15.3031 45.6035 14.079 44.0586 14.079H42.932C42.7046 19.5182 41.3113 24.845 38.8464 29.6989C36.3815 34.5529 32.9025 38.8206 28.645 42.2131L29.3036 43.121C30.2136 44.3733 31.8451 44.5336 32.8353 43.6453C40.6322 36.6744 45.5308 27.0325 46.5633 16.6248V16.6226ZM11.2466 14.0725C9.91848 14.0725 9.14931 15.5761 9.92498 16.6508L13.2508 21.2615C13.4256 21.5044 13.5299 21.7909 13.5522 22.0893C13.5745 22.3877 13.514 22.6865 13.3773 22.9527C13.2406 23.219 13.033 23.4423 12.7775 23.598C12.522 23.7538 12.2284 23.836 11.9291 23.8355C11.3441 23.8355 10.8458 24.2883 10.8458 24.9123C10.8444 25.0552 10.8714 25.1969 10.9253 25.3292C10.9791 25.4616 11.0588 25.5819 11.1596 25.6831C11.2605 25.7843 11.3804 25.8645 11.5125 25.9189C11.6447 25.9733 11.7863 26.0009 11.9291 26H14.6483C15.0793 26 15.4926 26.1712 15.7974 26.4759C16.1021 26.7807 16.2733 27.194 16.2733 27.625C16.2733 28.056 16.1021 28.4693 15.7974 28.774C15.4926 29.0788 15.0793 29.25 14.6483 29.25C14.3428 29.25 14.1045 29.4905 14.1045 29.7873C14.1045 29.931 14.1615 30.0688 14.2631 30.1703C14.3647 30.2719 14.5025 30.329 14.6461 30.329H15.9938C17.0121 30.3268 17.7445 30.3246 19.22 30.3398C19.4737 30.3418 19.7235 30.4032 19.9492 30.5191C20.175 30.635 20.3704 30.8021 20.52 31.0071C21.9413 32.9615 24.446 36.4151 26.7383 39.5785C30.5814 36.4893 33.7232 32.6176 35.9549 28.2208C38.1865 23.8239 39.457 19.0025 39.682 14.0768L11.2466 14.0768V14.0725Z" fill="#222222"/>
</svg>
