<svg width="52" height="52" viewBox="0 0 52 52" fill="none" xmlns="http://www.w3.org/2000/svg">
<path d="M17.8749 19.5C17.4439 19.5 17.0306 19.6712 16.7259 19.976C16.4211 20.2807 16.2499 20.694 16.2499 21.125V30.875C16.2499 31.772 16.9779 32.5 17.8749 32.5H27.6249C28.0559 32.5 28.4692 32.3288 28.774 32.024C29.0787 31.7193 29.2499 31.306 29.2499 30.875V21.125C29.2499 20.694 29.0787 20.2807 28.774 19.976C28.4692 19.6712 28.0559 19.5 27.6249 19.5H17.8749ZM19.4999 29.25V22.75H25.9999V29.25H19.4999ZM4.33326 16.7917C4.33326 14.0621 5.41756 11.4444 7.34762 9.51436C9.27768 7.5843 11.8954 6.5 14.6249 6.5H37.3749C39.3726 6.50012 41.3271 7.08164 43 8.17363C44.6728 9.26562 45.9917 10.8209 46.7957 12.6496C47.5997 14.4784 47.8541 16.5016 47.5278 18.4725C47.2015 20.4434 46.3087 22.2767 44.9583 23.7488V40.625C44.9583 41.9179 44.4446 43.1579 43.5304 44.0721C42.6162 44.9864 41.3762 45.5 40.0833 45.5H11.9166C10.6237 45.5 9.38369 44.9864 8.46945 44.0721C7.55521 43.1579 7.04159 41.9179 7.04159 40.625V23.7488C5.2971 21.8522 4.33025 19.3686 4.33326 16.7917ZM14.6249 9.75C13.2159 9.75021 11.8394 10.1731 10.6733 10.964C9.50721 11.7549 8.60521 12.8775 8.08393 14.1865C7.56265 15.4955 7.44606 16.9309 7.74925 18.3069C8.05243 19.6829 8.76144 20.9363 9.78459 21.905C9.94494 22.057 10.0726 22.2401 10.1598 22.4432C10.247 22.6462 10.2918 22.8649 10.2916 23.0858V40.625C10.2916 41.522 11.0196 42.25 11.9166 42.25H33.5833C34.0142 42.25 34.4276 42.0788 34.7323 41.7741C35.0371 41.4693 35.2083 41.056 35.2083 40.625V23.959C35.2083 23.6941 35.273 23.4333 35.3969 23.1991C35.5207 22.965 35.7 22.7647 35.9189 22.6157C37.1646 21.7691 38.1061 20.5453 38.605 19.1242C39.1039 17.703 39.134 16.1594 38.6909 14.7199C38.2477 13.2803 37.3547 12.0209 36.1429 11.1263C34.9311 10.2318 33.4644 9.74944 31.9583 9.75H14.6249ZM42.2499 16.7917C42.2512 18.3201 41.9115 19.8295 41.2556 21.2099C40.5997 22.5904 39.644 23.8072 38.4583 24.7715V40.625C38.4583 41.1948 38.3608 41.7408 38.1809 42.25H40.0833C40.5142 42.25 40.9276 42.0788 41.2323 41.7741C41.5371 41.4693 41.7083 41.056 41.7083 40.625V23.0858C41.708 22.8649 41.7529 22.6462 41.8401 22.4432C41.9272 22.2401 42.0549 22.057 42.2153 21.905C43.081 21.0847 43.7243 20.0581 44.0848 18.9213C44.4454 17.7845 44.5114 16.5747 44.2767 15.4055C44.042 14.2362 43.5142 13.1456 42.7428 12.236C41.9715 11.3264 40.9818 10.6276 39.8666 10.205C41.41 12.0525 42.2537 14.3843 42.2499 16.7917Z" fill="#222222"/>
</svg>
