<svg width="52" height="52" viewBox="0 0 52 52" fill="none" xmlns="http://www.w3.org/2000/svg">
<path d="M6.50002 17.9042V17.875C6.49998 14.9859 7.35561 12.1616 8.95897 9.75825C10.5623 7.35494 12.8416 5.48034 15.5091 4.37096C18.1767 3.26159 21.1131 2.96714 23.9478 3.52477C26.7826 4.0824 29.3886 5.46711 31.4373 7.50422C33.0491 6.70866 34.8495 6.37417 36.6396 6.5377C38.4296 6.70123 40.1396 7.35642 41.5806 8.43088C43.0217 9.50534 44.1376 10.9572 44.8052 12.6262C45.4728 14.2951 45.666 16.1161 45.3635 17.888C45.8082 17.9292 46.2397 18.0617 46.6309 18.2772C47.0221 18.4926 47.3647 18.7864 47.6374 19.1401C47.91 19.4939 48.1068 19.9001 48.2155 20.3333C48.3242 20.7665 48.3424 21.2174 48.269 21.658C46.8 30.4947 43.1665 36.088 37.375 38.441V40.625C37.375 41.9179 36.8614 43.1579 35.9472 44.0721C35.0329 44.9864 33.7929 45.5 32.5 45.5H19.5C18.2071 45.5 16.9671 44.9864 16.0529 44.0721C15.1386 43.1579 14.625 41.9179 14.625 40.625V38.441C8.83352 36.088 5.20002 30.4947 3.73102 21.658C3.66012 21.2291 3.67598 20.7904 3.77764 20.3678C3.8793 19.9452 4.06471 19.5472 4.32289 19.1975C4.58107 18.8478 4.90678 18.5535 5.28074 18.3319C5.65469 18.1103 6.0693 17.966 6.50002 17.9075V17.9042ZM9.75002 17.875H13C13 15.7201 13.856 13.6535 15.3798 12.1297C16.9035 10.606 18.9701 9.74997 21.125 9.74997C23.2799 9.74997 25.3465 10.606 26.8703 12.1297C28.394 13.6535 29.25 15.7201 29.25 17.875H32.5C32.5 14.8581 31.3016 11.9649 29.1684 9.83163C27.0351 7.69841 24.1419 6.49997 21.125 6.49997C18.1082 6.49997 15.2149 7.69841 13.0817 9.83163C10.9485 11.9649 9.75002 14.8581 9.75002 17.875ZM16.25 17.875H26C26 16.582 25.4864 15.3421 24.5722 14.4278C23.6579 13.5136 22.4179 13 21.125 13C19.8321 13 18.5921 13.5136 17.6779 14.4278C16.7636 15.3421 16.25 16.582 16.25 17.875ZM38.5645 17.875H42.0453C42.2906 16.9145 42.3135 15.9107 42.1122 14.9401C41.9108 13.9694 41.4905 13.0575 40.8834 12.2739C40.2762 11.4903 39.4982 10.8556 38.6086 10.4182C37.719 9.98082 36.7413 9.75227 35.75 9.74997C34.97 9.74997 34.229 9.88647 33.54 10.1367C34.1153 11.0597 34.5898 12.0542 34.9538 13.0975C35.5728 12.9439 36.2233 12.9756 36.8245 13.1884C37.4257 13.4012 37.9511 13.7859 38.3357 14.2947C38.7202 14.8035 38.9469 15.414 38.9876 16.0505C39.0283 16.687 38.8812 17.3214 38.5645 17.875ZM34.125 39H17.875V40.625C17.875 41.056 18.0462 41.4693 18.351 41.774C18.6557 42.0788 19.069 42.25 19.5 42.25H32.5C32.931 42.25 33.3443 42.0788 33.6491 41.774C33.9538 41.4693 34.125 41.056 34.125 40.625V39ZM16.731 35.75H35.269C40.4235 34.0925 43.6865 29.406 45.0645 21.125H6.93552C8.31352 29.406 11.5765 34.0925 16.731 35.75Z" fill="#222222"/>
</svg>
