<svg width="52" height="52" viewBox="0 0 52 52" fill="none" xmlns="http://www.w3.org/2000/svg">
<path d="M47.6666 17.3334C47.669 14.0922 46.4605 10.9671 44.2782 8.57074C42.0959 6.17439 39.0971 4.67968 35.8699 4.37969C32.6426 4.07969 29.4197 4.99606 26.8331 6.9491C24.2465 8.90214 22.4827 11.751 21.8876 14.937C20.6569 18.9237 19.5411 21.0969 18.9301 22.1065L13.4766 27.56C13.2823 27.7545 13.1406 27.9951 13.0646 28.2593C12.9886 28.5235 12.9809 28.8026 13.0421 29.0706C13.1034 29.3386 13.2316 29.5866 13.4148 29.7916C13.5981 29.9965 13.8303 30.1516 14.0898 30.2424L9.66761 34.6667C8.52761 34.6836 7.422 35.0597 6.50825 35.7416C5.59449 36.4234 4.91919 37.3762 4.57852 38.4643C4.23784 39.5523 4.24918 40.7201 4.6109 41.8013C4.97262 42.8825 5.66629 43.822 6.59311 44.486C6.94411 44.7374 7.26261 45.0537 7.51394 45.4069C8.1785 46.3344 9.11897 47.0283 10.2012 47.3898C11.2835 47.7512 12.4522 47.7617 13.5408 47.4196C14.6293 47.0776 15.582 46.4006 16.2631 45.4851C16.9441 44.5696 17.3186 43.4624 17.3333 42.3215L21.7533 37.9015C21.8427 38.1625 21.9971 38.3964 22.202 38.5812C22.4068 38.766 22.6553 38.8956 22.9241 38.9579C23.1929 39.0201 23.473 39.0128 23.7382 38.9368C24.0034 38.8608 24.2449 38.7185 24.4399 38.5234L29.9086 33.0547C30.9334 32.4415 33.1109 31.3322 37.0911 30.108C40.0652 29.5426 42.7489 27.9572 44.6794 25.6252C46.61 23.2932 47.6664 20.3608 47.6666 17.3334ZM21.6666 33.3927L14.9153 40.1419C14.6449 40.4214 14.4322 40.7514 14.2895 41.1132C14.1467 41.4749 14.0767 41.8612 14.0833 42.25C14.0832 42.7088 13.9374 43.1557 13.6671 43.5263C13.3967 43.897 13.0157 44.1722 12.5789 44.3124C12.142 44.4527 11.672 44.4506 11.2364 44.3066C10.8008 44.1626 10.4222 43.884 10.1551 43.511C9.69353 42.8691 9.13082 42.3064 8.48894 41.8449C8.11596 41.5777 7.8374 41.1991 7.69338 40.7635C7.54936 40.328 7.54731 39.8579 7.68754 39.4211C7.82776 38.9843 8.10301 38.6033 8.47365 38.3329C8.84429 38.0625 9.29117 37.9168 9.74994 37.9167C10.3978 37.9167 11.2081 37.7217 11.8408 37.089L18.5964 30.3334H21.6666V33.3927ZM34.6666 7.58336C37.1025 7.58051 39.4512 8.48957 41.2504 10.1316C43.0497 11.7736 44.1691 14.0296 44.3884 16.4556C44.6077 18.8816 43.9109 21.3018 42.4353 23.2399C40.9597 25.1779 38.812 26.4934 36.4151 26.9274C36.3522 26.938 36.29 26.9525 36.2288 26.9707C31.7611 28.34 29.2759 29.6205 28.0388 30.3897C27.9335 30.4556 27.8361 30.5334 27.7484 30.6215L24.9166 33.4512V28.7084C24.9166 28.2774 24.7454 27.8641 24.4407 27.5593C24.1359 27.2546 23.7226 27.0834 23.2916 27.0834H18.5466L21.3633 24.2689C21.4496 24.1824 21.5259 24.0864 21.5908 23.9829C22.3578 22.7565 23.6469 20.2779 25.0228 15.7994C25.0417 15.7368 25.0569 15.6731 25.0683 15.6087C25.4732 13.3579 26.6564 11.3209 28.4109 9.85396C30.1654 8.38699 32.3796 7.5833 34.6666 7.58336Z" fill="#222222"/>
</svg>
