<svg width="52" height="52" viewBox="0 0 52 52" fill="none" xmlns="http://www.w3.org/2000/svg">
<path d="M40.625 3.25C40.194 3.25 39.7807 3.4212 39.476 3.72595C39.1712 4.0307 39 4.44402 39 4.875V14.625C39.0005 15.6336 38.6882 16.6175 38.1062 17.4411C37.5241 18.2647 36.7009 18.8876 35.75 19.2238V4.875C35.75 4.44402 35.5788 4.0307 35.274 3.72595C34.9693 3.4212 34.556 3.25 34.125 3.25C33.694 3.25 33.2807 3.4212 32.976 3.72595C32.6712 4.0307 32.5 4.44402 32.5 4.875V19.2238C31.5491 18.8876 30.7259 18.2647 30.1438 17.4411C29.5618 16.6175 29.2495 15.6336 29.25 14.625V4.875C29.25 4.44402 29.0788 4.0307 28.774 3.72595C28.4693 3.4212 28.056 3.25 27.625 3.25C27.194 3.25 26.7807 3.4212 26.476 3.72595C26.1712 4.0307 26 4.44402 26 4.875V14.625C25.9996 16.4981 26.6464 18.3137 27.8309 19.7647C29.0154 21.2157 30.6648 22.2129 32.5 22.5875V47.125C32.5 47.556 32.6712 47.9693 32.976 48.274C33.2807 48.5788 33.694 48.75 34.125 48.75C34.556 48.75 34.9693 48.5788 35.274 48.274C35.5788 47.9693 35.75 47.556 35.75 47.125V22.5875C37.5852 22.2129 39.2346 21.2157 40.4191 19.7647C41.6036 18.3137 42.2504 16.4981 42.25 14.625V4.875C42.25 4.44402 42.0788 4.0307 41.774 3.72595C41.4693 3.4212 41.056 3.25 40.625 3.25ZM17.9432 8.05675C17.4265 7.53675 16.8447 7.137 16.25 6.87375V22.75H19.5V11.375C19.5 10.2797 18.9345 9.04475 17.9432 8.05675ZM16.25 26V47.125C16.25 47.556 16.0788 47.9693 15.774 48.274C15.4693 48.5788 15.056 48.75 14.625 48.75C14.194 48.75 13.7807 48.5788 13.476 48.274C13.1712 47.9693 13 47.556 13 47.125V4.875C13 4.44402 13.1712 4.0307 13.476 3.72595C13.7807 3.4212 14.194 3.25 14.625 3.25C16.7798 3.25 18.7948 4.3095 20.2443 5.75575C21.6905 7.20525 22.75 9.22025 22.75 11.375V24.375C22.75 24.806 22.5788 25.2193 22.274 25.524C21.9693 25.8288 21.556 26 21.125 26H16.25Z" fill="#222222"/>
</svg>
