<svg width="52" height="52" viewBox="0 0 52 52" fill="none" xmlns="http://www.w3.org/2000/svg">
<path d="M8.66671 21.6667C10.1511 19.1312 12.5561 17.2658 15.3811 16.4587C18.2061 15.6515 21.2335 15.9648 23.8334 17.3333V6.50001H28.1667V17.3333C30.7666 15.9648 33.794 15.6515 36.619 16.4587C39.444 17.2658 41.849 19.1312 43.3334 21.6667C47.6667 28.1667 36.8334 47.6667 32.5 47.6667C28.1667 47.6667 28.1667 45.5 26 45.5C23.8334 45.5 23.8334 47.6667 19.5 47.6667C15.1667 47.6667 4.33338 28.1667 8.66671 21.6667ZM12.4584 28.99C13.8017 34.3417 16.445 39.26 20.15 43.3333C20.5834 43.3333 21.0817 43.1167 21.45 42.7917C22.7379 41.7504 24.3439 41.1823 26 41.1823C27.6562 41.1823 29.2622 41.7504 30.55 42.7917C30.9184 43.1167 31.4167 43.3333 31.85 43.3333C35.5653 39.2736 38.2091 34.3511 39.5417 29.0117C40.0834 27.43 40.1917 25.7183 39.7367 24.0933C39.12 22.9938 38.2292 22.0727 37.1508 21.4196C36.0725 20.7666 34.8435 20.4038 33.5834 20.3667C32.37 20.3883 31.1784 20.67 30.095 21.2117L28.1667 22.1867H23.8334L21.905 21.2117C20.8217 20.67 19.63 20.3883 18.4167 20.3667C15.86 20.4317 13.52 21.84 12.2634 24.0717C11.8084 25.6967 11.9167 27.4083 12.4584 28.99ZM28.1667 10.8333C40.3434 17.485 43.095 8.19001 43.095 8.19001C43.095 8.19001 37.3317 0.411674 28.1667 10.8333Z" fill="#222222"/>
</svg>
