<svg xmlns="http://www.w3.org/2000/svg" id="icon_110_Err_01" width="110" height="110" viewBox="0 0 110 110">
    <defs>
        <style>
            .cls-5{fill:none;stroke:#ef5350;stroke-miterlimit:10}.cls-4{fill:#fff}.cls-5{stroke-linecap:round;stroke-linejoin:round;stroke-width:1.65px}
        </style>
    </defs>
    <g id="Group_2" transform="translate(4.5 14.4)">
        <path id="Rectangle" fill="#ef5350" d="M4.4 0h91.2a4.4 4.4 0 0 1 4.4 4.4V15H0V4.4A4.4 4.4 0 0 1 4.4 0z" opacity="0.38" transform="translate(.5 .6)"/>
        <rect id="Rectangle-2" width="100" height="80" fill="none" stroke="#ef5350" stroke-miterlimit="10" stroke-width="1.5px" rx="4.4" transform="translate(.5 .6)"/>
        <circle id="Oval" cx="2.5" cy="2.5" r="2.5" class="cls-4" transform="translate(7.5 5.6)"/>
        <circle id="Oval-2" cx="2.5" cy="2.5" r="2.5" class="cls-4" transform="translate(16.5 5.6)"/>
        <circle id="Oval-3" cx="2.5" cy="2.5" r="2.5" class="cls-4" transform="translate(25.5 5.6)"/>
        <g id="Group_3" transform="translate(42.5 39.6)">
            <g id="Group" transform="translate(7.051 .365)">
                <path id="Path" d="M.55 0v2.2" class="cls-5"/>
                <path id="Path-2" d="M.55 0v2.2" class="cls-5" transform="translate(0 11)"/>
            </g>
            <g id="Group-2" transform="rotate(45 3.635 15.294)">
                <path id="Path-3" d="M.55 0v2.2" class="cls-5"/>
                <path id="Path-4" d="M.55 0v2.2" class="cls-5" transform="translate(0 11)"/>
            </g>
            <g id="Group-3" transform="rotate(90 3.893 10.308)">
                <path id="Path-5" d="M.55 0v2.2" class="cls-5"/>
                <path id="Path-6" d="M.55 0v2.2" class="cls-5" transform="translate(0 11)"/>
            </g>
            <g id="Group-4" transform="rotate(135 4 8.243)">
                <path id="Path-7" d="M.55 0v2.2" class="cls-5"/>
                <path id="Path-8" d="M.55 0v2.2" class="cls-5" transform="translate(0 11)"/>
            </g>
        </g>
    </g>
</svg>
