<svg xmlns="http://www.w3.org/2000/svg" width="24" height="24" viewBox="0 0 24 24">
    <g fill="none" fill-rule="evenodd">
        <g>
            <path stroke="#000" stroke-width="1.2" d="M6.138 1.098c1.266 0 2.496.492 3.383 1.368.811.802 1.33 1.926 1.33 3.282 0 2.414-1.616 4.94-4.713 7.62-3.089-2.68-4.7-5.207-4.7-7.62 0-1.368.513-2.492 1.318-3.29.884-.876 2.114-1.36 3.382-1.36z" transform="translate(6 4)"/>
            <path fill="#000" d="M1.788 15.7h8.7c.331 0 .6.27.6.6 0 .332-.269.6-.6.6h-8.7c-.331 0-.6-.268-.6-.6 0-.33.269-.6.6-.6z" transform="translate(6 4)"/>
            <path stroke="#000" stroke-width="1.2" d="M6.197 4.215c.376 0 .716.152.962.398.246.247.399.587.399.962 0 .376-.153.716-.399.962-.246.246-.586.398-.962.398-.375 0-.715-.152-.961-.398-.247-.246-.399-.586-.399-.962 0-.375.152-.715.399-.962.246-.246.586-.398.961-.398z" transform="translate(6 4)"/>
        </g>
    </g>
</svg>
