<svg xmlns="http://www.w3.org/2000/svg" width="30" height="30" viewBox="0 0 30 30">
    <g fill="none" fill-rule="evenodd">
        <path d="M0 0H30V30H0z"/>
        <path fill="#FFF" d="M20.685 5.4c.824 0 1.549.545 1.777 1.337l1.32 4.578c.211.73.318 1.486.318 2.245v9.002c0 1.022-.828 1.85-1.85 1.85H7.257c-1.022 0-1.85-.828-1.85-1.851l.05-9.06c.004-.72.104-1.436.297-2.13l1.288-4.618c.223-.8.952-1.353 1.782-1.353zm2.178 7.45H6.693c-.023.218-.035.438-.036.658l-.05 9.05c0 .363.29.654.65.654H22.25c.359 0 .65-.29.65-.65V13.56c0-.237-.012-.475-.037-.71zm-10.32 2.397l4.426.023c.331.002.598.272.597.603-.002.332-.272.599-.603.597l-4.425-.023c-.332-.002-.599-.272-.597-.603.002-.332.272-.599.603-.597zm1.607-8.648L8.824 6.6c-.292 0-.548.194-.626.475L6.922 11.65h7.228v-5.05zm6.535.001l-5.335-.001v5.05h7.28v-.001L21.31 7.07c-.081-.278-.336-.47-.625-.47z"/>
    </g>
</svg>
