<svg xmlns="http://www.w3.org/2000/svg" width="16" height="16" viewBox="0 0 16 16">
    <g fill="none" fill-rule="evenodd">
        <path fill="#C2C2C2" d="M9.754 13.633l-.065-.038c.228.129.724.193 1.12.09.442-.114.697-.263 1.242-.714.212-.175.442-.413.688-.712.337-.409.306-1.006-.07-1.377l-1.222-1.204c-.261-.258-.64-.356-.994-.256l-1.034.291c-.247.07-.512.02-.717-.134-.49-.37-.877-.8-1.16-1.288-.286-.497-.468-1.06-.546-1.69-.03-.244.051-.489.221-.667l.78-.819c.246-.257.34-.624.248-.968l-.49-1.83c-.125-.468-.562-.784-1.046-.756-.443.027-.821.084-1.137.172-.729.205-1.08.408-1.357.79-.122.169-.208.376-.27.621l-.047.216-.055.305c-.07.342-.11 1.147-.032 2.01.123 1.36.508 2.709 1.226 3.953.73 1.264 1.754 2.27 2.95 3.055l.192.121c.653.397 1.674.9 1.575.83z"/>
    </g>
</svg>
