<svg xmlns="http://www.w3.org/2000/svg" width="24" height="24" viewBox="0 0 24 24">
    <g fill="none" fill-rule="evenodd">
        <path d="M0 0H24V24H0z"/>
        <path fill="#333" d="M12 2c5.523 0 10 4.477 10 10s-4.477 10-10 10S2 17.523 2 12 6.477 2 12 2zm0 1.2c-4.86 0-8.8 3.94-8.8 8.8 0 4.86 3.94 8.8 8.8 8.8 4.86 0 8.8-3.94 8.8-8.8 0-4.86-3.94-8.8-8.8-8.8zm0 11.284c.442 0 .8.358.8.8 0 .442-.358.8-.8.8-.442 0-.8-.358-.8-.8 0-.442.358-.8.8-.8zm0-6.634c.298 0 .546.218.592.503l.008.097v4.534c0 .33-.269.6-.6.6-.298 0-.546-.218-.592-.503l-.008-.097V8.45c0-.331.269-.6.6-.6z"/>
    </g>
</svg>
