<svg xmlns="http://www.w3.org/2000/svg" width="24" height="24" viewBox="0 0 24 24">
    <g fill="none" fill-rule="evenodd">
        <path fill="#ADADAD" d="M12 4.4c1.41 0 2.567 1.093 2.654 2.476l.005.168-.001.564h3.47c.848 0 1.493.742 1.471 1.597l-.009.136-.755 7.043c-.125 1.158-1.039 2.05-2.149 2.05H7.314c-1.11 0-2.025-.892-2.149-2.05L4.41 9.342c-.097-.91.57-1.733 1.464-1.733H9.34v-.564C9.341 5.583 10.532 4.4 12 4.4zm6.127 4.408h-3.469v1.005c0 .33-.268.6-.6.6-.297 0-.545-.218-.591-.503l-.008-.098-.001-1.004h-2.917v1.005c0 .33-.268.6-.6.6-.298 0-.545-.218-.592-.503l-.008-.098V8.809H5.873c-.132 0-.259.136-.272.322l.002.083.755 7.044c.061.567.481.976.956.976h9.372c.475 0 .895-.409.956-.977l.755-7.043c.025-.228-.119-.405-.27-.405zM12 5.6c-.76 0-1.382.573-1.452 1.305l-.007.139v.564h2.917v-.564c0-.797-.651-1.444-1.458-1.444z"/>
    </g>
</svg>
