<svg xmlns="http://www.w3.org/2000/svg" xmlns:xlink="http://www.w3.org/1999/xlink" width="40" height="40" viewBox="0 0 40 40">
    <defs>
        <circle id="prefix__a" cx="20" cy="20" r="20"/>
    </defs>
    <g fill="none" fill-rule="evenodd">
        <mask id="prefix__b" fill="#fff">
            <use xlink:href="#prefix__a"/>
        </mask>
        <use fill="#80C342" xlink:href="#prefix__a"/>
        <g mask="url(#prefix__b)">
            <g>
                <path fill="#FFF" d="M14 6c1.595 0 2.9 1.228 2.991 2.779l.005.174v.75h4.139c.932 0 1.642.813 1.614 1.749l-.01.141-.88 8.13C21.72 21.012 20.697 22 19.457 22H8.543c-1.24 0-2.263-.989-2.402-2.276l-.88-8.13c-.108-.995.625-1.89 1.604-1.89l4.138-.001v-.75C11.004 7.32 12.347 6 14 6zm7.135 4.89h-4.139v1.258c0 .328-.268.594-.599.594-.297 0-.544-.215-.59-.497l-.008-.097-.001-1.258h-3.597v1.258c0 .328-.268.594-.598.594-.298 0-.545-.215-.591-.497l-.008-.097-.001-1.258H6.865c-.214 0-.406.209-.417.483l.003.094.88 8.13c.077.704.607 1.216 1.212 1.216h10.914c.606 0 1.135-.512 1.211-1.216l.88-8.13c.035-.32-.176-.577-.413-.577zM14 7.187c-.945 0-1.718.714-1.793 1.62l-.006.146v.75h3.597v-.75c0-.974-.804-1.766-1.798-1.766z" transform="translate(6 6)"/>
            </g>
        </g>
    </g>
</svg>
