<svg xmlns="http://www.w3.org/2000/svg" width="32" height="32" viewBox="0 0 32 32">
    <g fill="none" fill-rule="evenodd">
        <path fill="#ADADAD" d="M15.52 5.25c2.062 0 3.737 1.661 3.84 3.74l.005.203-.001 1.099h5.365c1.204 0 2.11 1.085 2.06 2.322l-.011.155-1.136 10.87c-.178 1.697-1.486 3.006-3.079 3.006H8.478c-1.593 0-2.902-1.31-3.079-3.007l-1.136-10.87c-.135-1.299.795-2.476 2.049-2.476h5.364v-1.1c0-2.172 1.716-3.942 3.844-3.942zm9.21 6.542h-5.366v1.726c0 .414-.335.75-.75.75-.38 0-.693-.282-.743-.648l-.006-.102-.001-1.726h-4.688v1.726c0 .414-.336.75-.75.75-.38 0-.693-.282-.743-.648l-.007-.102v-1.726H6.312c-.29 0-.556.307-.562.71l.005.111 1.136 10.87c.1.964.798 1.662 1.587 1.662h14.085c.79 0 1.486-.698 1.587-1.663l1.136-10.87c.047-.455-.24-.82-.557-.82zM15.52 6.75c-1.235 0-2.256 1-2.338 2.275l-.006.168v1.099h4.688v-1.1c0-1.354-1.054-2.442-2.344-2.442z"/>
    </g>
</svg>
