<svg xmlns="http://www.w3.org/2000/svg" width="24" height="24" viewBox="0 0 24 24">
    <g fill="none" fill-rule="evenodd">
        <g>
            <g>
                <g>
                    <g>
                        <g>
                            <g>
                                <g>
                                    <path fill="#333" d="M5.076 8.376c.208-.209.531-.232.765-.07l.083.07L12 14.45l6.076-6.075c.208-.209.531-.232.765-.07l.083.07c.209.208.232.531.07.765l-.07.083-6.5 6.5c-.208.209-.531.232-.765.07l-.083-.07-6.5-6.5c-.235-.234-.235-.614 0-.848z" transform="translate(-1260 -1116) translate(136 232) translate(832 400) translate(0 80) translate(0 102) translate(0 301) matrix(1 0 0 -1 292 25)"/>
                                </g>
                            </g>
                        </g>
                    </g>
                </g>
            </g>
        </g>
    </g>
</svg>
