<svg xmlns="http://www.w3.org/2000/svg" width="32" height="32" viewBox="0 0 32 32">
    <g fill="none" fill-rule="evenodd">
        <path d="M0 0H32V32H0z"/>
        <path fill="#333" d="M21.13 6.184l-.235-.004-.278.008-.29.022c-1.446.145-2.833.803-4.166 1.948l-.157.139-.09-.083C14.41 6.87 12.819 6.18 11.157 6.18c-3.75 0-6.358 2.8-6.406 6.915-.066 5.567 6.403 12.721 11.238 12.721 4.807 0 11.261-7.129 11.261-12.704 0-4.02-2.48-6.808-6.12-6.928zm-.45 1.502l.212-.007.201.004c2.79.092 4.657 2.191 4.657 5.43 0 4.777-5.817 11.203-9.76 11.203-3.97 0-9.795-6.444-9.74-11.203.04-3.32 2.007-5.433 4.907-5.433 1.413 0 2.806.676 4.19 2.061l.116.119c.29.295.765.299 1.06.008l.156-.153c1.333-1.29 2.667-1.958 4-2.029z"/>
    </g>
</svg>
