<svg xmlns="http://www.w3.org/2000/svg" width="32" height="32" viewBox="0 0 32 32">
    <g fill="none" fill-rule="evenodd">
        <path d="M0 0H32V32H0z"/>
        <path fill="#000" d="M16.357 6.381l.091.064 11.006 9c.306.25.352.702.101 1.009-.228.279-.622.341-.922.162l-.087-.06-1.796-1.47V24c0 1.45-1.08 2.654-2.465 2.745l-.167.005H9.882c-1.408 0-2.542-1.147-2.627-2.577L7.25 24v-8.956l-1.797 1.465c-.28.227-.678.21-.936-.026l-.073-.077c-.227-.28-.21-.678.026-.936l.077-.073 10.995-8.953c.235-.191.56-.212.815-.063zm-.364 1.545L8.75 13.823V24c0 .656.455 1.18 1.018 1.244l.114.006h12.236c.576 0 1.067-.483 1.126-1.12l.006-.13V13.86l-7.257-5.934z"/>
    </g>
</svg>
