<svg xmlns="http://www.w3.org/2000/svg" width="34" height="34" viewBox="0 0 34 34">
    <g fill="none" fill-rule="evenodd">
        <g>
            <g>
                <g>
                    <g>
                        <g>
                            <path d="M0 0H34V34H0z" transform="translate(-1074 -327) translate(136 232) translate(240 56) translate(180 30) translate(518 9)"/>
                            <path fill="#333" d="M15.473 5.313c5.611 0 10.16 4.548 10.16 10.16 0 2.27-.745 4.367-2.004 6.059l5.59 4.87c.373.326.412.892.087 1.266-.3.344-.806.404-1.176.155l-.09-.069-5.604-4.883c-1.818 1.713-4.268 2.762-6.963 2.762-5.612 0-10.16-4.549-10.16-10.16 0-5.612 4.548-10.16 10.16-10.16zm0 1.792c-4.621 0-8.368 3.747-8.368 8.368 0 4.62 3.747 8.367 8.368 8.367 4.62 0 8.367-3.746 8.367-8.367s-3.746-8.368-8.367-8.368z" transform="translate(-1074 -327) translate(136 232) translate(240 56) translate(180 30) translate(518 9)"/>
                        </g>
                    </g>
                </g>
            </g>
        </g>
    </g>
</svg>
