<svg xmlns="http://www.w3.org/2000/svg" width="24" height="24" viewBox="0 0 24 24">
    <g fill="none" fill-rule="evenodd">
        <g>
            <g>
                <g>
                    <g>
                        <g>
                            <g>
                                <path d="M0 0H24V24H0z" transform="translate(-115 -553) translate(0 109) translate(16) translate(0 432) translate(99 12)"/>
                                <g transform="translate(-115 -553) translate(0 109) translate(16) translate(0 432) translate(99 12) translate(2.5 5)">
                                    <path fill="#CACACA" d="M11.983 7.017l-3.974 5.9c-.173.256-.105.604.151.777.093.062.202.096.313.096h9.067c.31 0 .56-.251.56-.56 0-.116-.036-.229-.102-.323l-4.171-5.91c-.357-.506-1.056-.626-1.56-.27-.112.079-.208.177-.284.29z"/>
                                    <path fill="#D7D7D7" d="M6.443 4.218L.587 12.917c-.172.257-.104.605.152.777.093.062.202.096.313.096H13.97c.31 0 .56-.251.56-.56 0-.116-.036-.229-.102-.323L8.287 4.198c-.356-.505-1.055-.626-1.56-.27-.112.08-.208.177-.284.29z"/>
                                    <circle cx="14.49" cy="1.96" r="1.96" fill="#D7D7D7"/>
                                </g>
                            </g>
                        </g>
                    </g>
                </g>
            </g>
        </g>
    </g>
</svg>
