<svg xmlns="http://www.w3.org/2000/svg" xmlns:xlink="http://www.w3.org/1999/xlink" width="32" height="32" viewBox="0 0 32 32">
    <defs>
        <path id="g26nanswsa" d="M22.467 12.472c.291-.294.766-.296 1.06-.005.268.265.295.681.078.976l-.072.085-6.93 7c-.264.267-.68.294-.975.077l-.085-.072-7.07-7c-.295-.291-.297-.766-.006-1.06.265-.268.681-.295.976-.078l.085.072 6.537 6.472 6.402-6.467z"/>
    </defs>
    <g fill="none" fill-rule="evenodd" opacity=".92">
        <g>
            <g>
                <g>
                    <g>
                        <g transform="translate(-584 -336) translate(136 232) translate(240 56) translate(64 48) matrix(-1 0 0 1 176 0)">
                            <use fill="#333" transform="matrix(0 -1 -1 0 32.5 32.5)" xlink:href="#g26nanswsa"/>
                        </g>
                    </g>
                </g>
            </g>
        </g>
    </g>
</svg>
