<svg xmlns="http://www.w3.org/2000/svg" width="24" height="24" viewBox="0 0 24 24">
    <g fill="none" fill-rule="evenodd">
        <g>
            <g>
                <g>
                    <g>
                        <g>
                            <g>
                                <g>
                                    <g>
                                        <path fill="#333" d="M12.1 7c.276 0 .5.224.5.5v3.9h3.9c.276 0 .5.224.5.5v.2c0 .276-.224.5-.5.5h-3.9v3.9c0 .276-.224.5-.5.5h-.2c-.276 0-.5-.224-.5-.5v-3.9H7.5c-.276 0-.5-.224-.5-.5v-.2c0-.276.224-.5.5-.5h3.9V7.5c0-.276.224-.5.5-.5h.2z" transform="translate(-276 -550) translate(0 109) translate(16 149) translate(170) translate(0 170) translate(0 118) translate(86) translate(4 4)"/>
                                    </g>
                                </g>
                            </g>
                        </g>
                    </g>
                </g>
            </g>
        </g>
    </g>
</svg>
