<svg xmlns="http://www.w3.org/2000/svg" width="32" height="32" viewBox="0 0 32 32">
    <g fill="none" fill-rule="evenodd">
        <path d="M0 0H32V32H0z"/>
        <path fill="#333333" d="M16.2 5c6.186 0 11.2 5.014 11.2 11.2 0 6.186-5.014 11.2-11.2 11.2C10.014 27.4 5 22.386 5 16.2 5 10.014 10.014 5 16.2 5zm0 1.2c-5.523 0-10 4.477-10 10s4.477 10 10 10 10-4.477 10-10-4.477-10-10-10zm-.117 6.48l-.018.004-.029.009.03-.009.004-.001.042-.009c.017-.003.035-.005.053-.006l.03-.001h.04l.054.007h.003l.025.006c.02.004.038.01.057.016l.006.002.021.008c.018.008.036.016.054.026l-.012-.006.05.028.032.023.038.031.03.03.032.037.023.03.026.041.016.029.005.01.02.048.01.029 1.697 5.216 1.697-5.216c.09-.275.354-.434.618-.387l.087.023c.261.094.413.373.368.65l-.022.092-2.222 6.832c-.16.493-.794.524-1.013.092l-.038-.092-1.697-5.216-1.697 5.216c-.16.493-.793.524-1.013.092l-.038-.092-2.222-6.832c-.1-.305.056-.637.346-.742.261-.094.543.029.67.277l.035.087 1.697 5.216 1.696-5.216.01-.029.01-.024.004-.007.003-.009.025-.047c.008-.014.017-.028.026-.04l.023-.031c.01-.013.02-.025.032-.037l.03-.03.038-.03c.01-.009.021-.016.032-.024l.038-.022c.018-.01.036-.018.054-.026l.021-.008.045-.014.002-.001z"/>
    </g>
</svg>
