<svg xmlns="http://www.w3.org/2000/svg" width="30" height="30" viewBox="0 0 30 30">
    <g fill="none" fill-rule="evenodd">
        <path d="M0 0H30V30H0z" opacity=".2"/>
        <path fill="#FFF" d="M14.775 4.975c1.243 0 2.25 1.007 2.25 2.25v.9l-.002.08c2.635.622 4.597 2.99 4.597 5.815v4.672c0 .603.4 1.484 1.229 2.603.116.157.179.347.179.542 0 .504-.408.913-.912.913h-4.189c-.322 1.528-1.678 2.675-3.302 2.675s-2.98-1.147-3.302-2.676l-4.188.001c-.195 0-.386-.063-.543-.18-.405-.299-.49-.87-.19-1.275.828-1.12 1.229-2 1.229-2.603V14.02c0-2.825 1.961-5.193 4.597-5.815-.003-.025-.003-.053-.003-.08v-.9c0-1.243 1.007-2.25 2.25-2.25h.3zm1.91 17.775h-4.12c.291.858 1.104 1.475 2.06 1.475s1.769-.617 2.06-1.475zm-1.04-13.505h-2.039c-2.637 0-4.775 2.138-4.775 4.775v4.672c0 .795-.373 1.722-1.103 2.805l-.036.052 13.867.001-.036-.053c-.674-1-1.044-1.866-1.097-2.619l-.006-.186V14.02c0-2.637-2.138-4.775-4.775-4.775zm-.87-3.07h-.3c-.541 0-.987.41-1.044.936l-.006.114v.823l.181-.003h2.039l.18.003v-.823c0-.541-.41-.987-.936-1.044l-.114-.006z"/>
        <circle cx="21.75" cy="6.375" r="1.875" fill="#FFD51A"/>
    </g>
</svg>
