<svg xmlns="http://www.w3.org/2000/svg" width="16" height="16" viewBox="0 0 16 16">
    <defs>
        <filter id="sa3iv3h7aa">
            <feColorMatrix in="SourceGraphic" values="0 0 0 0 0.200000 0 0 0 0 0.200000 0 0 0 0 0.200000 0 0 0 1.000000 0"/>
        </filter>
    </defs>
    <g fill="none" fill-rule="evenodd">
        <path d="M0 0H16V16H0z"/>
        <g>
            <path fill="#333" fill-rule="nonzero" d="M3.038 12.433c-.164 0-.322-.056-.448-.16-.304-.247-.349-.694-.1-.996.507-.622.747-1.124.747-1.482V7.347c0-1.939 1.35-3.562 3.162-3.98l.001-.55c0-.829.672-1.5 1.5-1.5h.2c.828 0 1.5.671 1.5 1.5v.55c1.812.418 3.163 2.041 3.163 3.98v2.448c0 .358.24.86.748 1.482.104.126.16.285.16.448 0 .391-.317.709-.708.708H10.25c0 1.243-1.007 2.25-2.25 2.25s-2.25-1.007-2.25-2.25zm3.712 0c0 .69.56 1.25 1.25 1.25s1.25-.56 1.25-1.25h-2.5zm1.93-8.17H7.32c-1.702 0-3.083 1.38-3.083 3.084v2.448c0 .475-.187.986-.551 1.543l-.066.095h8.76l-.065-.095c-.324-.495-.508-.953-.545-1.383l-.007-.16V7.347c0-1.703-1.38-3.084-3.083-3.084zM8.1 2.317h-.2c-.245 0-.45.177-.492.41l-.008.09v.446h1.2v-.446c0-.246-.177-.45-.41-.492l-.09-.008z"/>
        </g>
    </g>
</svg>
