<svg xmlns="http://www.w3.org/2000/svg" width="20" height="20" viewBox="0 0 20 20">
    <g fill="none" fill-rule="evenodd">
        <g>
            <g>
                <g>
                    <g>
                        <g>
                            <g>
                                <path d="M0 0H20V20H0z" transform="translate(-322 -860) translate(136 232) translate(0 400) translate(0 176) translate(140 38) translate(46 14)"/>
                                <path fill="#C2C2C2" d="M10.996.828c.234-.234.614-.234.848 0 .208.21.231.533.069.766l-.07.083-7.516 7.504c-.209.21-.533.231-.767.068l-.083-.07L.174 5.842c-.234-.236-.232-.615.004-.849.21-.207.533-.228.766-.065l.082.07 2.88 2.908 7.09-7.078z" transform="translate(-322 -860) translate(136 232) translate(0 400) translate(0 176) translate(140 38) translate(46 14) translate(4 5)"/>
                            </g>
                        </g>
                    </g>
                </g>
            </g>
        </g>
    </g>
</svg>
