<svg xmlns="http://www.w3.org/2000/svg" xmlns:xlink="http://www.w3.org/1999/xlink" width="28" height="28" viewBox="0 0 28 28">
    <defs>
        <path id="f6mynffs8a" d="M19.915 7.121c.267-.184.635-.158.872.08.267.266.267.699 0 .966l-5.752 5.901 1.518 1.519 1.297 1.297 1.051 1.05.351.351 1.048 1.048.487.488c.62.618-.247 1.534-.888 1.036l-.078-.07-5.828-5.827-5.826 5.827-.095.08c-.266.184-.634.158-.872-.08-.267-.267-.267-.7 0-.966l5.827-5.828L7.2 8.167c-.267-.267-.267-.7 0-.967s.7-.267.967 0l.447.448 3.308 3.308 2.097 2.096L19.821 7.2z"/>
    </defs>
    <g fill="none" fill-rule="evenodd">
        <use fill="#333" xlink:href="#f6mynffs8a"/>
    </g>
</svg>
