<svg xmlns="http://www.w3.org/2000/svg" xmlns:xlink="http://www.w3.org/1999/xlink" width="32" height="33" viewBox="0 0 32 33">
    <defs>
        <path id="prefix__a" d="M9.899 7.577l6.819 6.95 6.819-6.95.11-.094c.312-.22.744-.189 1.021.094.313.319.313.835 0 1.153l-6.818 6.95c1.532 1.563 2.84 2.897 3.927 4.003l2.891 2.948c.724.738-.29 1.83-1.039 1.236l-.092-.083-6.82-6.952L9.9 23.784l-.11.094c-.313.22-.744.189-1.021-.094-.313-.319-.313-.835 0-1.153l6.818-6.95-6.818-6.95c-.313-.319-.313-.835 0-1.154.312-.318.819-.318 1.131 0z"/>
    </defs>
    <g fill="none" fill-rule="evenodd" transform="translate(0 .192)">
        <use fill="#000" xlink:href="#prefix__a"/>
    </g>
</svg>
