<svg xmlns="http://www.w3.org/2000/svg" xmlns:xlink="http://www.w3.org/1999/xlink" width="24" height="24" viewBox="0 0 24 24">
    <defs>
        <path id="prefix__a" d="M7.424 5.576l5.115 5.115 5.114-5.115.083-.07c.234-.162.557-.139.765.07.235.234.235.614 0 .848l-5.113 5.116 2.944 2.944 2.17 2.169c.542.543-.218 1.346-.78.91l-.07-.062-5.114-5.114-5.114 5.114-.083.07c-.234.162-.557.138-.765-.07-.235-.234-.235-.614 0-.848l5.113-5.115-5.113-5.114c-.235-.234-.235-.614 0-.848.234-.235.614-.235.848 0z"/>
    </defs>
    <g fill="none" fill-rule="evenodd">
        <use fill="#fff" xlink:href="#prefix__a"/>
    </g>
</svg>
