<svg xmlns="http://www.w3.org/2000/svg" width="20" height="20" viewBox="0 0 20 20">
    <g fill="none" fill-rule="evenodd">
        <path fill="#333" d="M14.532 15.123c.218 0 .395.224.395.5 0 .248-.144.454-.331.493l-.064.007h-9.21c-.219 0-.395-.224-.395-.5 0-.249.143-.455.33-.494l.064-.006h9.21zM13.263 4.178l1.799 2.143c.295.352.25.878-.103 1.174l-6.652 5.582c-.15.126-.341.195-.538.195l-2.197-.004c-.46 0-.833-.375-.832-.835 0-.05.005-.1.014-.15l.396-2.136c.035-.19.135-.363.283-.487l6.656-5.585c.353-.296.879-.25 1.174.103zm-.659.771l-6.482 5.44-.348 1.88 1.936.004 6.478-5.436-1.584-1.888z"/>
    </g>
</svg>
