<svg xmlns="http://www.w3.org/2000/svg" width="32" height="32" viewBox="0 0 32 32">
    <g fill="none" fill-rule="evenodd">
        <path d="M0 0H32V32H0z"/>
        <path fill="#ADADAD" d="M21.232 6.75l-.26.008c-1.65.087-3.253.896-4.808 2.394l-.167.163-.129-.13c-1.612-1.609-3.3-2.435-5.057-2.435-3.511 0-6.013 2.566-6.06 6.589-.067 5.7 6.696 12.766 11.238 12.766 4.52 0 11.261-7.05 11.261-12.758 0-3.933-2.384-6.482-5.78-6.593l-.238-.004zm.01 1.5c2.675 0 4.508 1.892 4.508 5.097 0 4.895-6.084 11.258-9.761 11.258-3.695 0-9.796-6.373-9.739-11.249.038-3.213 1.884-5.106 4.56-5.106 1.521 0 3.056.864 4.612 2.656.296.34.823.344 1.124.009 1.606-1.787 3.17-2.655 4.696-2.665z"/>
    </g>
</svg>
