<svg xmlns="http://www.w3.org/2000/svg" width="16" height="16" viewBox="0 0 16 16">
    <g fill="none" fill-rule="evenodd">
        <path d="M0 0H16V16H0z"/>
        <path fill="#333" d="M5.417 2.7c-2.056 0-3.49 1.528-3.517 3.762C1.865 9.465 5.36 13.3 7.994 13.3c2.62 0 6.106-3.821 6.106-6.828 0-2.182-1.364-3.705-3.36-3.77l-.15-.002-.13.004-.22.019c-.731.086-1.432.408-2.105.953l-.133.112-.101-.089C7.116 3.04 6.285 2.7 5.417 2.7zm0 1c.726 0 1.445.346 2.165 1.062l.061.062c.194.195.508.198.705.006l.083-.08.189-.175c.63-.552 1.257-.84 1.88-.872l.111-.004.104.003c1.431.047 2.385 1.111 2.385 2.77 0 2.474-3.06 5.828-5.106 5.828-2.06 0-5.123-3.363-5.094-5.826C2.92 4.772 3.926 3.7 5.417 3.7z"/>
    </g>
</svg>
