<svg xmlns="http://www.w3.org/2000/svg" width="20" height="20" viewBox="0 0 20 20">
    <g fill="none" fill-rule="evenodd">
        <g>
            <g>
                <g>
                    <g>
                        <g>
                            <path fill="#333" d="M7.373 5.172c.204-.204.522-.227.752-.068l.081.068 4.421 4.412c.205.204.228.521.069.75l-.069.082-4.42 4.412c-.23.23-.604.23-.834 0-.205-.204-.228-.521-.069-.75l.069-.082L11.376 10 7.373 6.004c-.205-.204-.228-.521-.069-.75l.069-.082z" transform="translate(-324 -456) translate(0 101) translate(0 62) translate(0 283) translate(324 10)"/>
                        </g>
                    </g>
                </g>
            </g>
        </g>
    </g>
</svg>
