<svg xmlns="http://www.w3.org/2000/svg" width="32" height="32" viewBox="0 0 32 32">
    <g fill="none" fill-rule="evenodd">
        <path d="M0 0H32V32H0z"/>
        <path fill="#000" d="M14.563 5c5.28 0 9.562 4.281 9.562 9.563 0 2.137-.701 4.11-1.886 5.702l5.26 4.585c.352.306.389.839.083 1.19-.283.324-.759.38-1.107.146l-.084-.064-5.274-4.597c-1.712 1.612-4.018 2.6-6.555 2.6-5.28 0-9.562-4.281-9.562-9.563C5 9.282 9.281 5 14.563 5zm0 1.688c-4.35 0-7.876 3.525-7.876 7.875 0 4.349 3.526 7.874 7.875 7.874 4.35 0 7.876-3.525 7.876-7.875 0-4.349-3.526-7.874-7.875-7.874z"/>
    </g>
</svg>
