<svg xmlns="http://www.w3.org/2000/svg" width="32" height="32" viewBox="0 0 32 32">
    <g fill="none" fill-rule="evenodd">
        <path d="M0 0H32V32H0z"/>
        <path fill="#80C342" d="M16 9.125c4.6 0 8.559 2.028 11.88 6.083.376.46.376 1.123 0 1.584l-.287.342c-3.26 3.827-7.125 5.741-11.593 5.741-4.6 0-8.559-2.028-11.88-6.083-.376-.46-.376-1.123 0-1.584l.287-.342C7.667 11.039 11.532 9.125 16 9.125zm0 3.194c-2.071 0-3.75 1.68-3.75 3.75 0 2.072 1.679 3.75 3.75 3.75 2.071 0 3.75-1.678 3.75-3.75 0-2.07-1.679-3.75-3.75-3.75z"/>
    </g>
</svg>
