<svg xmlns="http://www.w3.org/2000/svg" width="22" height="22" viewBox="0 0 22 22">
    <g fill="none" fill-rule="evenodd">
        <path d="M0 0H22V22H0z"/>
        <path fill="#FFF" d="M11 0c6.075 0 11 4.925 11 11s-4.925 11-11 11S0 17.075 0 11 4.925 0 11 0zm0 1.179c-5.424 0-9.821 4.397-9.821 9.821 0 5.424 4.397 9.821 9.821 9.821 5.424 0 9.821-4.397 9.821-9.821 0-5.424-4.397-9.821-9.821-9.821zm-.088 6.358l.055-.006.029-.001H11.033l.054.007h.004l.019.005c.02.004.04.01.06.017l.007.002.02.008c.019.007.037.016.054.025l-.013-.006.04.022.045.031.026.021.041.04.023.027c.009.01.017.021.025.033l.016.023.014.023.013.024.004.01c.009.017.016.035.023.053l.008.023 1.666 5.123 1.667-5.123c.088-.27.348-.426.607-.38l.086.023c.256.092.405.366.361.638l-.022.09L13.7 15c-.158.485-.78.515-.995.09l-.038-.09L11 9.876l-1.665 5.123c-.158.485-.78.515-.995.09L8.3 15 6.12 8.289c-.098-.3.054-.626.34-.728.256-.093.533.028.657.271l.035.086 1.667 5.123 1.666-5.123.008-.023.01-.027-.018.05.026-.067-.008.016.006-.011c.009-.02.02-.04.03-.058l.02-.031.028-.037.028-.032.028-.027c.012-.012.025-.022.039-.033l.033-.023.035-.02c.018-.01.037-.02.056-.027l.018-.007.059-.018.008-.001h-.005l.027-.005z"/>
    </g>
</svg>
