<svg width="52" height="52" viewBox="0 0 52 52" fill="none" xmlns="http://www.w3.org/2000/svg">
<path d="M21.1251 6.5V4.875C21.1251 3.58207 21.6387 2.34209 22.553 1.42785C23.4672 0.513615 24.7072 0 26.0001 0L32.5001 0C32.9311 0 33.3444 0.171205 33.6492 0.475951C33.9539 0.780698 34.1251 1.19402 34.1251 1.625C34.1251 2.05598 33.9539 2.4693 33.6492 2.77405C33.3444 3.0788 32.9311 3.25 32.5001 3.25H26.0001C25.5691 3.25 25.1558 3.4212 24.8511 3.72595C24.5463 4.0307 24.3751 4.44402 24.3751 4.875V6.5H40.6251C41.8674 6.49861 43.0634 6.97154 43.9687 7.82221C44.8741 8.67288 45.4205 9.8371 45.4965 11.0771C45.5724 12.3171 45.172 13.5393 44.3772 14.494C43.5824 15.4488 42.453 16.0641 41.2199 16.2142L39.2049 45.721C39.1489 46.5424 38.7832 47.312 38.1818 47.8742C37.5803 48.4364 36.7879 48.7494 35.9646 48.75H16.0356C15.2117 48.7503 14.4185 48.4376 13.8164 47.8753C13.2142 47.313 12.8481 46.543 12.7921 45.721L10.7804 16.2142C9.54716 16.0641 8.41782 15.4488 7.62299 14.494C6.82817 13.5393 6.42783 12.3171 6.50375 11.0771C6.57966 9.8371 7.12611 8.67288 8.03147 7.82221C8.93683 6.97154 10.1328 6.49861 11.3751 6.5H21.1251ZM14.0401 16.25L16.0356 45.5H35.9646L36.2084 41.9055C33.6274 41.2496 31.3582 39.7093 29.796 37.5527C28.2338 35.396 27.4775 32.7598 27.6588 30.103C27.8402 27.4462 28.9476 24.9371 30.7883 23.0128C32.6291 21.0884 35.0865 19.8706 37.7326 19.5715L37.9601 16.25H14.0401ZM11.3751 13H40.6251C41.0561 13 41.4694 12.8288 41.7742 12.524C42.0789 12.2193 42.2501 11.806 42.2501 11.375C42.2501 10.944 42.0789 10.5307 41.7742 10.226C41.4694 9.92121 41.0561 9.75 40.6251 9.75H11.3751C10.9441 9.75 10.5308 9.92121 10.2261 10.226C9.92131 10.5307 9.7501 10.944 9.7501 11.375C9.7501 11.806 9.92131 12.2193 10.2261 12.524C10.5308 12.8288 10.9441 13 11.3751 13ZM36.4326 38.5872L37.5051 22.8898C35.7343 23.2201 34.1236 24.1295 32.926 25.4751C31.7284 26.8206 31.0119 28.526 30.8891 30.3231C30.7663 32.1202 31.2442 33.9072 32.2477 35.4031C33.2511 36.8991 34.7232 38.0191 36.4326 38.5872Z" fill="#222222"/>
</svg>
